<?xml version="1.0" encoding="UTF-8" standalone="no"?>
<svg
   xmlns:dc="http://purl.org/dc/elements/1.1/"
   xmlns:cc="http://creativecommons.org/ns#"
   xmlns:rdf="http://www.w3.org/1999/02/22-rdf-syntax-ns#"
   xmlns:svg="http://www.w3.org/2000/svg"
   xmlns="http://www.w3.org/2000/svg"
   xmlns:xlink="http://www.w3.org/1999/xlink"
   xmlns:sodipodi="http://sodipodi.sourceforge.net/DTD/sodipodi-0.dtd"
   xmlns:inkscape="http://www.inkscape.org/namespaces/inkscape"
   width="10mm"
   height="10mm"
   viewBox="0 0 10 9.9999997"
   version="1.1"
   id="svg1985"
   inkscape:version="1.0.2 (1.0.2+r75+1)"
   sodipodi:docname="Logo_Siente.svg">
  <defs
     id="defs1979">
    <linearGradient
       y2="498.79373"
       x2="261.86658"
       y1="373.82486"
       x1="340.82416"
       gradientTransform="matrix(0.97367449,0,0,0.97367449,98.943118,452.84117)"
       gradientUnits="userSpaceOnUse"
       id="linearGradient4129"
       xlink:href="#linearGradient3034-8"
       inkscape:collect="always" />
    <linearGradient
       inkscape:collect="always"
       id="linearGradient3034-8">
      <stop
         style="stop-color:#d5fff6;stop-opacity:1"
         offset="0"
         id="stop3036-3" />
      <stop
         style="stop-color:#80ffe6;stop-opacity:1"
         offset="1"
         id="stop3038-2" />
    </linearGradient>
  </defs>
  <sodipodi:namedview
     id="base"
     pagecolor="#ffffff"
     bordercolor="#666666"
     borderopacity="1.0"
     inkscape:pageopacity="0.0"
     inkscape:pageshadow="2"
     inkscape:zoom="18.412271"
     inkscape:cx="10.090029"
     inkscape:cy="19.416399"
     inkscape:document-units="mm"
     inkscape:current-layer="layer1"
     inkscape:document-rotation="0"
     showgrid="false"
     fit-margin-top="0"
     fit-margin-left="0"
     fit-margin-right="0"
     fit-margin-bottom="0" />
  <metadata
     id="metadata1982">
    <rdf:RDF>
      <cc:Work
         rdf:about="">
        <dc:format>image/svg+xml</dc:format>
        <dc:type
           rdf:resource="http://purl.org/dc/dcmitype/StillImage" />
        <dc:title></dc:title>
      </cc:Work>
    </rdf:RDF>
  </metadata>
  <g
     inkscape:label="Capa 1"
     inkscape:groupmode="layer"
     id="layer1"
     transform="translate(-18.702667,-12.266833)">
    <g
       id="g4104"
       transform="matrix(0.05074616,0,0,0.05074616,4.1107479,-25.639459)"
       style="fill-rule:evenodd">
      <path
         inkscape:connector-curvature="0"
         id="path16-2"
         d="m 392.04064,794.93976 c 0,0 -7.72613,-39.81937 -48.73438,-36.84776 -41.00825,2.97165 -52.56768,63.91882 -52.56768,63.91882 0,0 -6.86443,19.28555 0.2678,59.69987 7.13117,40.41329 17.8289,61.21492 17.8289,61.21492 0,0 81.33786,-8.55664 113.66586,-26.14997 32.32887,-17.59428 46.24273,-42.17181 46.51143,-42.34126 0,0 7.91502,-13.54379 10.39297,-32.54306 2.47803,-18.99935 -3.56656,-46.35763 -23.77319,-58.24327 -20.20668,-11.88667 -33.87607,-9.50988 -33.87607,-9.50988 0,0 8.91493,2.37769 12.48052,12.48149 3.56656,10.10291 10.10384,41.00732 -2.37676,65.96944 -12.4805,24.9611 -27.33877,45.16772 -52.29995,54.08269 -24.96204,8.91496 -57.64926,14.85827 -57.64926,14.85827 0,0 -6.29482,-40.08228 -1.72444,-59.43207 4.56952,-19.35082 11.23333,-43.385 26.09161,-55.86653 14.85827,-12.48059 25.3467,-15.06472 29.71552,-14.97999 4.3689,0.0856 8.17789,1.02432 9.50992,1.31052 1.331,0.28738 6.53723,2.37777 6.53723,2.37777 z"
         style="fill:#cccccc;fill-rule:evenodd;stroke:none" />
      <path
         inkscape:connector-curvature="0"
         id="path18-5"
         d="m 396.49911,785.09686 c 0,0 -7.72612,-39.81942 -48.73437,-36.84772 -41.00825,2.97161 -52.56772,63.91882 -52.56772,63.91882 0,0 -6.86439,19.28649 0.2678,59.69987 7.13117,40.4133 17.82895,61.21488 17.82895,61.21488 0,0 81.33785,-8.55562 113.6668,-26.14998 32.32792,-17.59432 46.24169,-42.17176 46.51047,-42.34122 0,0 7.91495,-13.54378 10.39299,-32.54306 2.47798,-18.99935 -3.56657,-46.35669 -23.77324,-58.24326 -20.20663,-11.88666 -33.8761,-9.5089 -33.8761,-9.5089 0,0 8.91496,2.3767 12.48058,12.48051 3.56656,10.10283 10.10381,41.00825 -2.37674,65.96935 -12.4806,24.96115 -27.33887,45.16782 -52.29997,54.08278 -24.96207,8.91497 -57.64934,14.85827 -57.64934,14.85827 0,0 -6.29481,-40.08134 -1.72435,-59.43211 4.56943,-19.34979 11.23329,-43.385 26.09157,-55.86555 14.85827,-12.48055 25.34666,-15.06566 29.71556,-14.97995 4.36886,0.0847 8.1779,1.0233 9.50889,1.31052 1.33199,0.28654 6.53827,2.37675 6.53827,2.37675 z"
         style="fill:url(#linearGradient4129);fill-opacity:1;fill-rule:evenodd;stroke:none" />
    </g>
  </g>
</svg>
